<?xml version="1.0" encoding="UTF-8"?>
<svg xmlns="http://www.w3.org/2000/svg" viewBox="0 0 800 900" width="400" height="400" preserveAspectRatio="xMidYMid slice" role="img" aria-label="hero-4">
  <defs>
    <radialGradient id="bg-hero-4" cx="50%" cy="40%" r="75%">
      <stop offset="0%" stop-color="#F8F7F3"/>
      <stop offset="100%" stop-color="#F0ECE4"/>
    </radialGradient>
    <radialGradient id="hl-hero-4" cx="50%" cy="35%" r="55%">
      <stop offset="0%" stop-color="#FFFFFF" stop-opacity="0.20"/>
      <stop offset="70%" stop-color="#FFFFFF" stop-opacity="0"/>
    </radialGradient>
    <radialGradient id="gnd-hero-4" cx="50%" cy="50%" r="50%">
      <stop offset="0%" stop-color="#000000" stop-opacity="0.18"/>
      <stop offset="60%" stop-color="#000000" stop-opacity="0.06"/>
      <stop offset="100%" stop-color="#000000" stop-opacity="0"/>
    </radialGradient>
  </defs>
  <rect width="800" height="900" fill="url(#bg-hero-4)"/>
  <ellipse cx="400" cy="820" rx="226.79999999999998" ry="28" fill="url(#gnd-hero-4)"/>
  <g>
    <path d="M 260 240 Q 320 200 350 215 Q 400 210 450 215 Q 480 200 540 240 L 645 320 Q 660 350 635 370 L 560 350 L 555 745 L 555 745 Q 540 770 490 775 Q 400 785 310 775 Q 260 770 245 745 L 245 350 L 245 350 L 165 370 Q 140 350 155 320 L 260 240 Z" fill="#FFFFFF" stroke="#5C636B" stroke-width="1.5" stroke-linejoin="round"/>
    <ellipse cx="400" cy="270" rx="226.79999999999998" ry="110" fill="url(#hl-hero-4)"/>
    <line x1="270" y1="770" x2="530" y2="770" stroke="#5C636B" stroke-width="1" stroke-opacity="0.25" stroke-dasharray="3 3"/>
    <line x1="245" y1="360" x2="245" y2="758" stroke="#5C636B" stroke-width="1" stroke-opacity="0.2" stroke-dasharray="2 4"/>
    <line x1="555" y1="360" x2="555" y2="758" stroke="#5C636B" stroke-width="1" stroke-opacity="0.2" stroke-dasharray="2 4"/>
    <line x1="400" y1="245" x2="400" y2="335" stroke="#5C636B" stroke-opacity="0.6" stroke-width="1.2"/>
    <line x1="385" y1="245" x2="385" y2="335" stroke="#5C636B" stroke-opacity="0.25" stroke-width="0.8" stroke-dasharray="2 3"/>
    <line x1="415" y1="245" x2="415" y2="335" stroke="#5C636B" stroke-opacity="0.25" stroke-width="0.8" stroke-dasharray="2 3"/>
    <circle cx="400" cy="262" r="3.5" fill="#5C636B" fill-opacity="0.6"/>
    <circle cx="400" cy="290" r="3.5" fill="#5C636B" fill-opacity="0.6"/>
    <circle cx="400" cy="318" r="3.5" fill="#5C636B" fill-opacity="0.6"/>
    <path d="M 340 220 L 395 250 L 405 250 L 460 220" fill="none" stroke="#5C636B" stroke-opacity="0.4" stroke-width="1.2"/>
  </g>
</svg>
