<?xml version="1.0" encoding="UTF-8"?>
<svg xmlns="http://www.w3.org/2000/svg" viewBox="0 0 800 900" width="600" height="600" preserveAspectRatio="xMidYMid meet" role="img" aria-label="polo">
  <defs>
    <linearGradient id="bg-cat-polo" x1="0" y1="0" x2="0" y2="1">
      <stop offset="0%" stop-color="#FFFFFF"/>
      <stop offset="100%" stop-color="#F8F7F3"/>
    </linearGradient>
    <radialGradient id="hl-cat-polo" cx="50%" cy="50%" r="50%">
      <stop offset="0%" stop-color="#FFFFFF" stop-opacity="0.22"/>
      <stop offset="60%" stop-color="#FFFFFF" stop-opacity="0.05"/>
      <stop offset="100%" stop-color="#FFFFFF" stop-opacity="0"/>
    </radialGradient>
    <filter id="cat-shadow-polo" x="-20%" y="-10%" width="140%" height="130%">
      <feGaussianBlur in="SourceAlpha" stdDeviation="10"/>
      <feOffset dx="0" dy="14"/>
      <feComponentTransfer><feFuncA type="linear" slope="0.16"/></feComponentTransfer>
      <feMerge><feMergeNode/><feMergeNode in="SourceGraphic"/></feMerge>
    </filter>
  </defs>
  <rect width="800" height="900" fill="url(#bg-cat-polo)"/>
  <g filter="url(#cat-shadow-polo)">
    <path d="M 260 240 Q 320 200 350 215 Q 400 210 450 215 Q 480 200 540 240 L 645 320 Q 660 350 635 370 L 560 350 L 555 745 L 555 745 Q 540 770 490 775 Q 400 785 310 775 Q 260 770 245 745 L 245 350 L 245 350 L 165 370 Q 140 350 155 320 L 260 240 Z" fill="#35556D" stroke="none" stroke-width="0" stroke-linejoin="round"/>
    <ellipse cx="400" cy="270" rx="226.79999999999998" ry="110" fill="url(#hl-cat-polo)"/>
    <line x1="270" y1="770" x2="530" y2="770" stroke="#FFFFFF" stroke-width="1" stroke-opacity="0.18" stroke-dasharray="3 3"/>
    <line x1="245" y1="360" x2="245" y2="758" stroke="#FFFFFF" stroke-width="1" stroke-opacity="0.144" stroke-dasharray="2 4"/>
    <line x1="555" y1="360" x2="555" y2="758" stroke="#FFFFFF" stroke-width="1" stroke-opacity="0.144" stroke-dasharray="2 4"/>
    <line x1="400" y1="245" x2="400" y2="335" stroke="#FFFFFF" stroke-opacity="0.6" stroke-width="1.2"/>
    <line x1="385" y1="245" x2="385" y2="335" stroke="#FFFFFF" stroke-opacity="0.18" stroke-width="0.8" stroke-dasharray="2 3"/>
    <line x1="415" y1="245" x2="415" y2="335" stroke="#FFFFFF" stroke-opacity="0.18" stroke-width="0.8" stroke-dasharray="2 3"/>
    <circle cx="400" cy="262" r="3.5" fill="#FFFFFF" fill-opacity="0.6"/>
    <circle cx="400" cy="290" r="3.5" fill="#FFFFFF" fill-opacity="0.6"/>
    <circle cx="400" cy="318" r="3.5" fill="#FFFFFF" fill-opacity="0.6"/>
    <path d="M 340 220 L 395 250 L 405 250 L 460 220" fill="none" stroke="#FFFFFF" stroke-opacity="0.288" stroke-width="1.2"/>
  </g>
  <text x="730" y="850" font-family="Inter, system-ui" font-size="22" font-weight="600" fill="undefined" fill-opacity="0.55" text-anchor="end" letter-spacing="3">PL</text>
  <line x1="60" y1="850" x2="120" y2="850" stroke="#5C636B" stroke-opacity="0.25" stroke-width="1"/>
</svg>
