<?xml version="1.0" encoding="UTF-8"?>
<svg xmlns="http://www.w3.org/2000/svg" viewBox="0 0 800 900" width="800" height="900" role="img" aria-label="ATC1000Y arriere">
  <defs>
    <radialGradient id="bg-ATC1000Y--back" cx="50%" cy="42%" r="75%">
      <stop offset="0%" stop-color="#F8F7F3"/>
      <stop offset="100%" stop-color="#F0ECE4"/>
    </radialGradient>
    <radialGradient id="hl-ATC1000Y--back" cx="50%" cy="50%" r="50%">
      <stop offset="0%" stop-color="#FFFFFF" stop-opacity="0.22"/>
      <stop offset="60%" stop-color="#FFFFFF" stop-opacity="0.05"/>
      <stop offset="100%" stop-color="#FFFFFF" stop-opacity="0"/>
    </radialGradient>
    <radialGradient id="sh-ATC1000Y--back" cx="50%" cy="50%" r="50%">
      <stop offset="0%" stop-color="#000000" stop-opacity="0.10"/>
      <stop offset="100%" stop-color="#000000" stop-opacity="0"/>
    </radialGradient>
    <radialGradient id="gnd-ATC1000Y--back" cx="50%" cy="50%" r="50%">
      <stop offset="0%" stop-color="#000000" stop-opacity="0.18"/>
      <stop offset="60%" stop-color="#000000" stop-opacity="0.06"/>
      <stop offset="100%" stop-color="#000000" stop-opacity="0"/>
    </radialGradient>
  </defs>
  <rect width="800" height="900" fill="url(#bg-ATC1000Y--back)"/>
  <!-- ground shadow -->
  <ellipse cx="400" cy="800" rx="176.4" ry="28" fill="url(#gnd-ATC1000Y--back)"/>
  <!-- garment body -->
  <g>
    <path d="M 281 222 Q 340.5 196.5 366 209.25 Q 400 222 434 209.25 Q 459.5 196.5 519 222 L 604 273 Q 621 298.5 599.75 328.25 L 536 315.5 L 531.75 664 Q 519 689.5 476.5 693.75 Q 400 702.25 323.5 693.75 Q 281 689.5 268.25 664 L 264 315.5 L 200.25 328.25 Q 179 298.5 196 273 Z" fill="#101114" stroke="none" stroke-width="0" stroke-linejoin="round"/>
    <!-- shoulder highlight (clipped visually by being subtle) -->
    <ellipse cx="400" cy="315" rx="176.4" ry="110" fill="url(#hl-ATC1000Y--back)"/>
    <ellipse cx="400" cy="680" rx="159.6" ry="100" fill="url(#sh-ATC1000Y--back)"/>
    <!-- category-specific accents + stitching -->
    <line x1="270" y1="770" x2="530" y2="770" stroke="#FFFFFF" stroke-width="1" stroke-opacity="0.18" stroke-dasharray="3 3"/>
    <line x1="245" y1="335" x2="245" y2="758" stroke="#FFFFFF" stroke-width="1" stroke-opacity="0.144" stroke-dasharray="2 4"/>
    <line x1="555" y1="335" x2="555" y2="758" stroke="#FFFFFF" stroke-width="1" stroke-opacity="0.144" stroke-dasharray="2 4"/>
    <path d="M 280 230 Q 330 210 360 215" fill="none" stroke="#FFFFFF" stroke-opacity="0.18" stroke-width="1" stroke-dasharray="2 3"/>
    <path d="M 440 215 Q 470 210 520 230" fill="none" stroke="#FFFFFF" stroke-opacity="0.18" stroke-width="1" stroke-dasharray="2 3"/>
    <path d="M 165 340 Q 180 350 235 335" fill="none" stroke="#FFFFFF" stroke-opacity="0.18" stroke-width="1" stroke-dasharray="2 3"/>
    <path d="M 565 335 Q 620 350 635 340" fill="none" stroke="#FFFFFF" stroke-opacity="0.18" stroke-width="1" stroke-dasharray="2 3"/>
    <rect x="385" y="225" width="30" height="14" rx="2" fill="#FFFFFF" fill-opacity="0.4"/>
  </g>
  <!-- style code corner -->
  <text x="760" y="868" text-anchor="end" font-family="Inter,system-ui,sans-serif" font-size="12" font-weight="500" fill="#2A2D33" fill-opacity="0.4" letter-spacing="1">ATC1000Y · dos</text>
</svg>
