<?xml version="1.0" encoding="UTF-8"?>
<svg xmlns="http://www.w3.org/2000/svg" viewBox="0 0 800 900" width="800" height="900" role="img" aria-label="L445 avant">
  <defs>
    <radialGradient id="bg-L445-f" cx="50%" cy="42%" r="75%">
      <stop offset="0%" stop-color="#F8F7F3"/>
      <stop offset="100%" stop-color="#F0ECE4"/>
    </radialGradient>
    <radialGradient id="hl-L445-f" cx="50%" cy="50%" r="50%">
      <stop offset="0%" stop-color="#FFFFFF" stop-opacity="0.22"/>
      <stop offset="60%" stop-color="#FFFFFF" stop-opacity="0.05"/>
      <stop offset="100%" stop-color="#FFFFFF" stop-opacity="0"/>
    </radialGradient>
    <radialGradient id="sh-L445-f" cx="50%" cy="50%" r="50%">
      <stop offset="0%" stop-color="#000000" stop-opacity="0.10"/>
      <stop offset="100%" stop-color="#000000" stop-opacity="0"/>
    </radialGradient>
    <radialGradient id="gnd-L445-f" cx="50%" cy="50%" r="50%">
      <stop offset="0%" stop-color="#000000" stop-opacity="0.18"/>
      <stop offset="60%" stop-color="#000000" stop-opacity="0.06"/>
      <stop offset="100%" stop-color="#000000" stop-opacity="0"/>
    </radialGradient>
  </defs>
  <rect width="800" height="900" fill="url(#bg-L445-f)"/>
  <!-- ground shadow -->
  <ellipse cx="400" cy="820" rx="226.79999999999998" ry="28" fill="url(#gnd-L445-f)"/>
  <!-- garment body -->
  <g>
    <path d="M 260 240 Q 320 200 350 215 Q 400 210 450 215 Q 480 200 540 240 L 645 320 Q 660 350 635 370 L 560 350 L 555 745 L 555 745 Q 540 770 490 775 Q 400 785 310 775 Q 260 770 245 745 L 245 350 L 245 350 L 165 370 Q 140 350 155 320 L 260 240 Z" fill="#1B2B4B" stroke="none" stroke-width="0" stroke-linejoin="round"/>
    <!-- shoulder highlight (clipped visually by being subtle) -->
    <ellipse cx="400" cy="270" rx="226.79999999999998" ry="110" fill="url(#hl-L445-f)"/>
    <ellipse cx="400" cy="700" rx="205.2" ry="100" fill="url(#sh-L445-f)"/>
    <!-- category-specific accents + stitching -->
    <line x1="270" y1="770" x2="530" y2="770" stroke="#FFFFFF" stroke-width="1" stroke-opacity="0.18" stroke-dasharray="3 3"/>
    <line x1="245" y1="360" x2="245" y2="758" stroke="#FFFFFF" stroke-width="1" stroke-opacity="0.144" stroke-dasharray="2 4"/>
    <line x1="555" y1="360" x2="555" y2="758" stroke="#FFFFFF" stroke-width="1" stroke-opacity="0.144" stroke-dasharray="2 4"/>
    <line x1="400" y1="245" x2="400" y2="335" stroke="#FFFFFF" stroke-opacity="0.6" stroke-width="1.2"/>
    <line x1="385" y1="245" x2="385" y2="335" stroke="#FFFFFF" stroke-opacity="0.18" stroke-width="0.8" stroke-dasharray="2 3"/>
    <line x1="415" y1="245" x2="415" y2="335" stroke="#FFFFFF" stroke-opacity="0.18" stroke-width="0.8" stroke-dasharray="2 3"/>
    <circle cx="400" cy="262" r="3.5" fill="#FFFFFF" fill-opacity="0.6"/>
    <circle cx="400" cy="290" r="3.5" fill="#FFFFFF" fill-opacity="0.6"/>
    <circle cx="400" cy="318" r="3.5" fill="#FFFFFF" fill-opacity="0.6"/>
    <path d="M 340 220 L 395 250 L 405 250 L 460 220" fill="none" stroke="#FFFFFF" stroke-opacity="0.288" stroke-width="1.2"/>
  </g>
  <!-- style code corner -->
  <text x="760" y="868" text-anchor="end" font-family="Inter,system-ui,sans-serif" font-size="12" font-weight="500" fill="#2A2D33" fill-opacity="0.4" letter-spacing="1">L445</text>
</svg>
